<?xml version='1.0' encoding='utf-8'?>
<svg xmlns="http://www.w3.org/2000/svg" width="1536" height="1536" viewBox="0 0 1536 1536">
    <g transform="translate(256 0)"><path id="path1" fill="#fdfdfd" stroke="none" visibility="hidden" d="M 0 0 C 337.920013 0 675.840027 0 1024 0 C 1024 506.880005 1024 1013.76001 1024 1536 C 686.080017 1536 348.160004 1536 0 1536 C 0 1029.119995 0 522.23999 0 0 Z" />
    <path id="path2" fill="#01a5eb" stroke="none" d="M 492.769531 404.132813 C 498.37027 407.680908 501.888306 411.664917 504 418 C 504.968475 425.367798 504.023621 430.688477 499.804688 436.851563 C 494.694489 442.935181 487.68866 444.942139 480.415283 447.563965 C 438.784851 462.783325 401.003784 495.894775 381.9375 535.9375 C 375.423767 550.081238 373.040802 560.968262 378 576 C 378.330017 576.660034 378.660004 577.320007 379 578 C 378.017731 578.618774 378.017731 578.618774 377.015625 579.25 C 371.881805 582.498535 366.790344 585.79541 361.75 589.1875 C 357.583801 591.981262 347.402771 601.598511 343 604 C 333.967163 596.580811 333.981201 583.018188 332.285156 571.195313 C 329.379913 538.640625 343.644104 509.402588 363 484 C 363.666443 483.12085 364.332886 482.241699 365.019531 481.335938 C 375.833954 467.459961 388.197754 454.886841 402 444 C 403.44632 442.828247 403.44632 442.828247 404.921875 441.632813 C 424.365326 426.186646 446.603912 413.382813 470 405 C 470.984833 404.630005 471.969696 404.260132 472.984375 403.878906 C 479.321899 402.03186 486.587921 401.60437 492.769531 404.132813 Z" />
    <path id="path3" fill="#fdfdfd" stroke="none" d="M 721.375 420.9375 C 722.929626 422.276733 724.471558 423.630981 726 425 C 727.208496 426.013184 727.208496 426.013184 728.441406 427.046875 C 738.43512 435.61731 746.350403 445.994995 754.285156 456.4375 C 757.407471 460.546265 760.578674 464.616577 763.75 468.6875 C 764.953125 470.233032 766.15625 471.778687 767.359375 473.324219 C 768.263306 474.485107 768.263306 474.485107 769.185547 475.669434 C 772.707886 480.193726 776.227295 484.720215 779.746826 489.246582 C 782.674194 493.011108 785.603088 496.774292 788.535156 500.535156 C 794.764832 508.529053 800.960388 516.546814 807.105713 524.605713 C 811.040771 529.760498 815.012451 534.885742 819 540 C 823.530396 545.810486 828.03241 551.641052 832.5 557.5 C 837.617676 564.21106 842.784363 570.882446 847.97168 577.539795 C 852.216675 582.988708 856.440063 588.453369 860.644531 593.933594 C 862.653076 596.54834 864.670715 599.155823 866.690674 601.761719 C 868.368408 603.932495 870.035278 606.111389 871.698242 608.293457 C 872.584412 609.4552 873.473206 610.61499 874.364258 611.772949 C 881.494263 621.068909 887.624084 630.587891 893 641 C 893.527893 642.016846 893.527893 642.016846 894.066406 643.054199 C 909.054504 672.318359 914.775879 705.510864 909 738 C 908.793762 739.180786 908.587524 740.361572 908.375 741.578125 C 902.221741 773.323364 883.368591 795.143311 857.369141 812.785156 C 851.330994 816.855164 845.260559 820.875488 839.18457 824.888672 C 835.997314 827.001831 832.821289 829.130859 829.648438 831.265625 C 809.373901 844.900757 788.621521 858.820007 765 866 C 764.242188 866.231689 763.484375 866.463379 762.703613 866.702148 C 752.563538 869.776245 742.538574 872.693237 732 874 C 730.909424 874.171448 729.818909 874.342896 728.695313 874.519531 C 716.852051 876.202759 704.962708 876.386963 693.019043 876.570557 C 672.010864 876.952148 657.387695 884.356079 640.591309 896.333984 C 635.948181 899.643066 631.260315 902.862183 626.5 906 C 609.027344 916.598511 609.027344 916.598511 595 931 C 594.321289 931.953247 594.321289 931.953247 593.628906 932.925781 C 588.846802 940.460815 587.446228 949.433472 585.552734 958.030762 C 579.585571 984.902649 565.6922 1007.825989 546 1027 C 545.561707 1027.483398 545.123413 1027.966797 544.671875 1028.464844 C 533.934631 1039.988403 519.313782 1048.223877 506.263672 1056.840332 C 500.500732 1060.653809 494.7547 1064.492676 489.006348 1068.328369 C 486.870544 1069.75293 484.734192 1071.176758 482.597656 1072.600342 C 475.90918 1077.057007 469.223419 1081.517578 462.546875 1085.992188 C 450.587402 1094.003296 438.59024 1101.931641 426.358398 1109.522949 C 423.790375 1111.131348 421.242737 1112.769287 418.695313 1114.410156 C 408.735809 1120.776978 399.21936 1126.200195 388 1130 C 387.153076 1130.312012 386.306183 1130.623901 385.433594 1130.945313 C 375.186035 1134.616699 365.218262 1135.389282 354.375 1135.375 C 353.711487 1135.374756 353.047943 1135.374512 352.364319 1135.374268 C 341.945007 1135.341187 332.803528 1134.596924 323 1131 C 321.945557 1130.626221 320.891083 1130.252319 319.804688 1129.867188 C 294.545502 1120.112305 277.458221 1101.006348 261.95166 1079.661621 C 258.637177 1075.141357 255.221344 1070.699219 251.8125 1066.25 C 246.698761 1059.554932 241.615448 1052.838989 236.572998 1046.090088 C 232.460571 1040.594238 228.293884 1035.140625 224.125 1029.6875 C 217.220123 1020.646423 210.44046 1011.519836 203.717773 1002.342773 C 200.819275 998.389709 197.908997 994.445313 195 990.5 C 193.833252 988.916687 192.666626 987.333374 191.5 985.75 C 190.922485 984.966248 190.344971 984.182495 189.75 983.375 C 184.5 976.25 184.5 976.25 182.750488 973.875488 C 181.582397 972.290344 180.414124 970.705383 179.245605 969.120605 C 176.348633 965.190979 173.455383 961.258667 170.570313 957.320313 C 164.378967 948.87793 158.114319 940.500427 151.75 932.1875 C 142.552795 920.154297 133.602112 908.130859 126 895 C 125.199463 893.642578 125.199463 893.642578 124.382813 892.257813 C 109.15741 864.410278 109.398804 832.169067 118.023438 802.476563 C 121.443909 791.526367 126.237488 781.355347 132.070313 771.480469 C 134.00647 767.988403 135.421875 764.551636 136.8125 760.8125 C 147.041809 734.545715 166.473267 719.677979 189.358398 704.737793 C 193.358276 702.106445 197.305786 699.401245 201.25 696.6875 C 202.822754 695.60791 204.395691 694.528442 205.96875 693.449219 C 207.184998 692.614624 207.184998 692.614624 208.425781 691.763184 C 235.515625 673.208252 262.749634 654.861389 289.970306 636.499268 C 300.285706 629.540527 310.591827 622.568848 320.875 615.5625 C 329.876953 609.42981 338.915802 603.356079 347.991699 597.333496 C 351.844696 594.775146 355.691101 592.206787 359.538574 589.640137 C 362.556 587.627747 365.574951 585.617737 368.597656 583.613281 C 380.346954 575.814636 391.970398 567.834106 403.589844 559.84375 C 412.325256 553.843811 421.106995 547.921692 429.9375 542.0625 C 438.187378 536.586731 446.340759 530.997192 454.428223 525.284912 C 461.808289 520.091003 469.317505 515.102295 476.84082 510.119141 C 484.970886 504.719971 492.999329 499.185303 500.987549 493.578613 C 506.597443 489.645996 512.26062 485.806641 517.96875 482.018066 C 522.961914 478.693848 527.917419 475.314453 532.875 471.9375 C 533.956543 471.201416 535.038025 470.465332 536.152344 469.707031 C 543.104248 464.975342 550.052429 460.238037 557 455.5 C 559.717224 453.647217 562.434509 451.794434 565.151855 449.941895 C 567.117188 448.601929 569.082336 447.261719 571.047363 445.921387 C 577.350647 441.622925 583.660522 437.334351 589.976563 433.054688 C 592.886719 431.077026 595.787598 429.086426 598.6875 427.09375 C 635.865906 401.69458 682.781799 390.794067 721.375 420.9375 Z" />
    <path id="path4" fill="#151b21" stroke="none" d="M 721.375 420.9375 C 722.929626 422.276733 724.471558 423.630981 726 425 C 727.208496 426.013184 727.208496 426.013184 728.441406 427.046875 C 738.43512 435.61731 746.350403 445.994995 754.285156 456.4375 C 757.407471 460.546265 760.578674 464.616577 763.75 468.6875 C 764.953125 470.233032 766.15625 471.778687 767.359375 473.324219 C 768.263306 474.485107 768.263306 474.485107 769.185547 475.669434 C 772.707886 480.193726 776.227295 484.720215 779.746826 489.246582 C 782.674194 493.011108 785.603088 496.774292 788.535156 500.535156 C 794.764832 508.529053 800.960388 516.546814 807.105713 524.605713 C 811.040771 529.760498 815.012451 534.885742 819 540 C 823.530396 545.810486 828.03241 551.641052 832.5 557.5 C 837.617676 564.21106 842.784363 570.882446 847.97168 577.539795 C 852.216675 582.988708 856.440063 588.453369 860.644531 593.933594 C 862.653076 596.54834 864.670715 599.155823 866.690674 601.761719 C 868.368408 603.932495 870.035278 606.111389 871.698242 608.293457 C 872.584412 609.4552 873.473206 610.61499 874.364258 611.772949 C 881.494263 621.068909 887.624084 630.587891 893 641 C 893.527893 642.016846 893.527893 642.016846 894.066406 643.054199 C 909.054504 672.318359 914.775879 705.510864 909 738 C 908.793762 739.180786 908.587524 740.361572 908.375 741.578125 C 902.221741 773.323364 883.368591 795.143311 857.369141 812.785156 C 851.330994 816.855164 845.260559 820.875488 839.18457 824.888672 C 835.997314 827.001831 832.821289 829.130859 829.648438 831.265625 C 809.373901 844.900757 788.621521 858.820007 765 866 C 764.242188 866.231689 763.484375 866.463379 762.703613 866.702148 C 752.563538 869.776245 742.538574 872.693237 732 874 C 730.909424 874.171448 729.818909 874.342896 728.695313 874.519531 C 716.852051 876.202759 704.962708 876.386963 693.019043 876.570557 C 672.010864 876.952148 657.387695 884.356079 640.591309 896.333984 C 635.948181 899.643066 631.260315 902.862183 626.5 906 C 609.027344 916.598511 609.027344 916.598511 595 931 C 594.321289 931.953247 594.321289 931.953247 593.628906 932.925781 C 588.846802 940.460815 587.446228 949.433472 585.552734 958.030762 C 579.585571 984.902649 565.6922 1007.825989 546 1027 C 545.561707 1027.483398 545.123413 1027.966797 544.671875 1028.464844 C 533.934631 1039.988403 519.313782 1048.223877 506.263672 1056.840332 C 500.500732 1060.653809 494.7547 1064.492676 489.006348 1068.328369 C 486.870544 1069.75293 484.734192 1071.176758 482.597656 1072.600342 C 475.90918 1077.057007 469.223419 1081.517578 462.546875 1085.992188 C 450.587402 1094.003296 438.59024 1101.931641 426.358398 1109.522949 C 423.790375 1111.131348 421.242737 1112.769287 418.695313 1114.410156 C 408.735809 1120.776978 399.21936 1126.200195 388 1130 C 387.153076 1130.312012 386.306183 1130.623901 385.433594 1130.945313 C 375.186035 1134.616699 365.218262 1135.389282 354.375 1135.375 C 353.711487 1135.374756 353.047943 1135.374512 352.364319 1135.374268 C 341.945007 1135.341187 332.803528 1134.596924 323 1131 C 321.945557 1130.626221 320.891083 1130.252319 319.804688 1129.867188 C 294.545502 1120.112305 277.458221 1101.006348 261.95166 1079.661621 C 258.637177 1075.141357 255.221344 1070.699219 251.8125 1066.25 C 246.698761 1059.554932 241.615448 1052.838989 236.572998 1046.090088 C 232.460571 1040.594238 228.293884 1035.140625 224.125 1029.6875 C 217.220123 1020.646423 210.44046 1011.519836 203.717773 1002.342773 C 200.819275 998.389709 197.908997 994.445313 195 990.5 C 193.833252 988.916687 192.666626 987.333374 191.5 985.75 C 190.922485 984.966248 190.344971 984.182495 189.75 983.375 C 184.5 976.25 184.5 976.25 182.750488 973.875488 C 181.582397 972.290344 180.414124 970.705383 179.245605 969.120605 C 176.348633 965.190979 173.455383 961.258667 170.570313 957.320313 C 164.378967 948.87793 158.114319 940.500427 151.75 932.1875 C 142.552795 920.154297 133.602112 908.130859 126 895 C 125.199463 893.642578 125.199463 893.642578 124.382813 892.257813 C 109.15741 864.410278 109.398804 832.169067 118.023438 802.476563 C 121.443909 791.526367 126.237488 781.355347 132.070313 771.480469 C 134.00647 767.988403 135.421875 764.551636 136.8125 760.8125 C 147.041809 734.545715 166.473267 719.677979 189.358398 704.737793 C 193.358276 702.106445 197.305786 699.401245 201.25 696.6875 C 202.822754 695.60791 204.395691 694.528442 205.96875 693.449219 C 207.184998 692.614624 207.184998 692.614624 208.425781 691.763184 C 235.515625 673.208252 262.749634 654.861389 289.970306 636.499268 C 300.285706 629.540527 310.591827 622.568848 320.875 615.5625 C 329.876953 609.42981 338.915802 603.356079 347.991699 597.333496 C 351.844696 594.775146 355.691101 592.206787 359.538574 589.640137 C 362.556 587.627747 365.574951 585.617737 368.597656 583.613281 C 380.346954 575.814636 391.970398 567.834106 403.589844 559.84375 C 412.325256 553.843811 421.106995 547.921692 429.9375 542.0625 C 438.187378 536.586731 446.340759 530.997192 454.428223 525.284912 C 461.808289 520.091003 469.317505 515.102295 476.84082 510.119141 C 484.970886 504.719971 492.999329 499.185303 500.987549 493.578613 C 506.597443 489.645996 512.26062 485.806641 517.96875 482.018066 C 522.961914 478.693848 527.917419 475.314453 532.875 471.9375 C 533.956543 471.201416 535.038025 470.465332 536.152344 469.707031 C 543.104248 464.975342 550.052429 460.238037 557 455.5 C 559.717224 453.647217 562.434509 451.794434 565.151855 449.941895 C 567.117188 448.601929 569.082336 447.261719 571.047363 445.921387 C 577.350647 441.622925 583.660522 437.334351 589.976563 433.054688 C 592.886719 431.077026 595.787598 429.086426 598.6875 427.09375 C 635.865906 401.69458 682.781799 390.794067 721.375 420.9375 Z M 620.007813 456.507813 C 613.722168 460.912231 607.356628 465.199097 601 469.5 C 598.707825 471.05127 596.416138 472.603394 594.125 474.15625 C 593.551025 474.545288 592.977051 474.934204 592.38562 475.334961 C 588.638245 477.878174 584.904907 480.44104 581.177551 483.013306 C 571.545166 489.659546 561.810547 496.145264 552.050049 502.601318 C 544.462524 507.622925 536.957947 512.69574 529.632813 518.096924 C 524.857056 521.549011 519.922241 524.761963 515 528 C 513.128418 529.238892 511.257324 530.478455 509.386719 531.71875 C 508.461182 532.332336 507.535645 532.945923 506.582031 533.578125 C 497.483154 539.619507 488.447144 545.735962 479.5 552 C 468.792908 559.493286 457.945557 566.760437 447.05127 573.978027 C 428.768616 586.080872 428.768616 586.080872 410.648682 598.424805 C 403.276367 603.516846 395.855225 608.536987 388.4375 613.5625 C 387.786285 614.004028 387.13504 614.445557 386.464081 614.900513 C 379.49707 619.623657 372.519318 624.329468 365.511719 628.992188 C 357.772125 634.142029 350.071381 639.348328 342.375 644.5625 C 339.39209 646.582275 336.408936 648.601685 333.425781 650.621094 C 332.660767 651.139038 331.895782 651.656921 331.107574 652.190552 C 325.484558 655.996887 319.858276 659.798401 314.230469 663.597656 C 294.364044 676.998291 294.364044 676.998291 274.576416 690.514893 C 267.284454 695.518616 259.911987 700.401978 252.530029 705.271729 C 246.730621 709.114197 241.065308 713.096191 235.456543 717.21167 C 232.458038 719.394531 229.409088 721.458496 226.3125 723.5 C 225.041656 724.342407 223.770813 725.184875 222.5 726.027344 C 220.059235 727.640503 217.617645 729.252319 215.175781 730.86377 C 208.093872 735.541626 201.034241 740.250854 194 745 C 193.300537 745.468567 192.601074 745.937134 191.880371 746.419922 C 180.929993 753.820801 173.530396 763.144531 169.425781 775.765625 C 167.079834 788.076416 168.660522 801.54187 175.385254 812.194336 C 178.763611 817.133301 182.414551 821.852539 186.10498 826.560547 C 189.150635 830.481201 192.069824 834.492798 195 838.5 C 196.166016 840.083801 197.332703 841.667114 198.5 843.25 C 205.5 852.75 205.5 852.75 207.250488 855.125732 C 208.415466 856.706665 209.580475 858.287598 210.745605 859.868408 C 213.68927 863.862549 216.631317 867.85791 219.570313 871.855469 C 225.016357 879.260193 230.474579 886.654236 236 894 C 242.129059 902.148254 248.174194 910.3573 254.213379 918.572266 C 255.987152 920.982544 257.764435 923.390137 259.542969 925.796875 C 265.280029 933.563354 270.986877 941.348816 276.625 949.1875 C 281.14801 955.47345 285.741882 961.699219 290.404053 967.882568 C 294.369019 973.144653 298.284698 978.441711 302.1875 983.75 C 310.030334 994.422363 310.030334 994.422363 318 1005 C 318.611023 1005.835327 319.222046 1006.670654 319.851563 1007.53125 C 326.570648 1015.252075 336.623932 1021.43103 346.808594 1022.339844 C 362.799133 1023.140198 374.088043 1016.856995 387 1008 C 388.667542 1006.869141 390.335541 1005.739014 392.003906 1004.609375 C 396.723053 1001.406982 401.430023 998.187134 406.134277 994.962891 C 410.688873 991.843201 415.250702 988.734131 419.8125 985.625 C 420.71814 985.007568 421.623779 984.390076 422.556885 983.753906 C 428.325775 979.821167 434.095917 975.890259 439.868652 971.963135 C 441.921722 970.566162 443.974121 969.168213 446.025879 967.769287 C 451.311401 964.169678 456.60733 960.588135 461.930267 957.044189 C 464.679688 955.212585 467.424561 953.374146 470.16922 951.535461 C 471.485596 950.656311 472.804077 949.780273 474.124969 948.907898 C 487.674316 939.956543 500.419342 930.283508 510 917 C 510.759277 915.95459 511.518494 914.90918 512.300781 913.832031 C 520.092957 902.659302 524.941895 890.338989 527.8125 877.0625 C 530.700073 863.924255 538.057983 850.975281 547 841 C 547.662598 840.208496 548.325134 839.416992 549.007813 838.601563 C 560.581299 825.119873 575.183228 815.985474 589.9375 806.375 C 591.893005 805.091797 593.848083 803.807922 595.802734 802.523438 C 623.91803 784.08197 647.611877 771.851074 681.818604 770.166565 C 693.404968 769.5802 704.70343 768.807739 716 766 C 717.202698 765.724121 718.405396 765.448242 719.644531 765.164063 C 737.905762 760.689575 755.018982 753.17981 770.597656 742.65625 C 771.544006 742.02124 771.544006 742.02124 772.50946 741.373413 C 774.675049 739.918701 776.837769 738.459717 779 737 C 779.815308 736.450195 780.630554 735.900391 781.470581 735.333862 C 788.858276 730.351074 796.242188 725.362549 803.622559 720.368896 C 806.429749 718.469849 809.237976 716.572388 812.046875 714.675781 C 812.93634 714.074768 813.825745 713.473755 814.742188 712.854492 C 819.268738 709.805237 823.820068 706.823669 828.457031 703.945313 C 837.018433 698.562866 844.284485 691.531128 848 682 C 848.350647 681.119568 848.701233 680.239136 849.0625 679.332031 C 852.721436 666.327637 850.197327 652.293823 843.705566 640.685303 C 840.332703 634.93042 836.62323 629.52179 832.625 624.1875 C 832.028503 623.384155 831.432007 622.580811 830.817383 621.753174 C 825.503113 614.618286 820.093628 607.556091 814.686523 600.491455 C 810.597778 595.136841 806.600525 589.734741 802.7146 584.231689 C 794.519592 572.633789 785.976624 561.282959 777.4375 549.9375 C 772.157593 542.920471 766.965881 535.847412 761.841309 528.716309 C 756.218933 520.896484 750.498779 513.149963 744.774902 505.404297 C 742.989014 502.985107 741.206787 500.563354 739.425781 498.140625 C 732.416687 488.607788 725.382996 479.094727 718.248535 469.655273 C 717.153809 468.203857 716.066528 466.746948 714.980469 465.289063 C 705.11377 452.237427 691.739441 441.429932 675 439 C 653.508118 437.478882 637.452026 444.272217 620.007813 456.507813 Z" />
    <path id="path5" fill="#04a67e" stroke="none" d="M 873 709 C 873.330017 709 873.659973 709 874 709 C 874.317688 720.142273 874.182129 730.210266 871 741 C 870.692566 742.301331 870.692566 742.301331 870.378906 743.628906 C 864.018555 768.872681 838.253235 782.318542 818.125 795.5 C 816.178162 796.779602 814.231567 798.05957 812.285156 799.339844 C 806.863464 802.903503 801.433228 806.453979 796 810 C 794.91156 810.712219 794.91156 810.712219 793.801086 811.438843 C 761.13501 832.795715 727.494629 840.243896 688.746338 840.533936 C 666.055786 840.808594 645.802612 848.386108 627.714844 861.984375 C 625.028687 863.97876 622.291748 865.84436 619.5 867.6875 C 574.482361 896.375977 574.482361 896.375977 551.898438 943.144531 C 548.035156 961.342529 542.47113 975.300781 531 990 C 530.343872 990.852051 529.687744 991.704102 529.011719 992.582031 C 519.815552 1003.635254 507.984436 1011.926941 496.017578 1019.676758 C 492.512878 1021.975342 489.07428 1024.369385 485.625 1026.75 C 473.561401 1035.037231 461.360016 1043.118286 449.173584 1051.223145 C 444.049133 1054.632568 438.930328 1058.050415 433.814453 1061.472656 C 430.051422 1063.98999 426.287231 1066.505493 422.52298 1069.020996 C 420.696808 1070.241943 418.871185 1071.463745 417.046112 1072.686279 C 387.784698 1092.285645 387.784698 1092.285645 377.0625 1095.9375 C 376.265228 1096.226929 375.467926 1096.516357 374.646484 1096.814453 C 359.102478 1102.330078 342.970703 1101.224121 328.077637 1094.438232 C 312.506592 1086.93811 303.515686 1076.294312 293.739258 1062.434082 C 291.057739 1058.681396 288.253845 1055.026978 285.4375 1051.375 C 284.90448 1050.680664 284.37146 1049.986206 283.822266 1049.270752 C 282.216553 1047.179199 280.608643 1045.089355 279 1043 C 271.617798 1033.411621 264.320313 1023.771851 257.1604 1014.016113 C 253.469666 1008.988159 249.75116 1003.983032 246 999 C 241.026917 992.391602 236.116089 985.739014 231.217529 979.075195 C 227.44342 973.945801 223.641357 968.838684 219.8125 963.75 C 214.651245 956.888306 209.56543 949.973999 204.496582 943.043945 C 197.380798 933.325623 190.240173 923.626099 183 914 C 178.518555 908.037842 174.060303 902.059082 169.625 896.0625 C 169.053955 895.293579 168.48291 894.524658 167.894531 893.732422 C 154.165039 875.131714 147.105408 857.358154 148 834 C 151.279724 837.078918 153.877197 840.448914 156.4375 844.125 C 157.325073 845.381836 158.213135 846.638306 159.101563 847.894531 C 159.571106 848.560486 160.040649 849.22644 160.524414 849.912598 C 167.862549 860.293274 175.356995 870.537354 183.12207 880.602539 C 187.599731 886.426453 191.908936 892.36084 196.188721 898.331055 C 199.793335 903.352112 203.462769 908.317505 207.1875 913.25 C 211.358032 918.774231 215.427673 924.358093 219.431396 930.00415 C 222.701294 934.606567 226.071777 939.126221 229.472656 943.632813 C 232.575012 947.753296 235.630005 951.908691 238.6875 956.0625 C 239.282593 956.870728 239.877625 957.678955 240.490723 958.511719 C 242.929504 961.825134 245.367249 965.139282 247.804199 968.454102 C 255.378113 978.755615 262.989929 989.026123 270.678711 999.242188 C 272.60376 1001.803223 274.519653 1004.371094 276.4375 1006.9375 C 277.537476 1008.398193 278.637512 1009.858765 279.738281 1011.318848 C 280.658508 1012.545044 281.574646 1013.774292 282.488281 1015.005371 C 297.560242 1035.307617 314.811218 1052.887329 341 1057 C 364.717712 1059.051636 383.624237 1052.362549 403.208496 1039.203125 C 404.983154 1038.011353 406.765656 1036.832275 408.550781 1035.65625 C 417.922424 1029.466431 427.178009 1023.106323 436.44043 1016.754883 C 449.76947 1007.616272 463.126862 998.528137 476.61792 989.629639 C 482.377625 985.813843 487.999603 981.853577 493.569092 977.765381 C 496.348206 975.747131 499.176086 973.860596 502.0625 972 C 532.578735 951.694946 553.297974 921.625427 562.0625 886.0625 C 567.484131 864.672241 583.354126 852.51001 601 841 C 603.441284 839.380615 605.876648 837.752502 608.3125 836.125 C 609.583252 835.278564 610.854126 834.432251 612.125 833.585938 C 614.733398 831.847412 617.337036 830.10199 619.9375 828.351563 C 640.06366 814.818115 640.06366 814.818115 652 811 C 653.134399 810.628784 654.268738 810.257507 655.4375 809.875 C 663.877319 807.802063 672.05542 806.831848 680.740723 806.774902 C 704.814941 806.604065 728.854797 802.700623 751 793 C 752.687439 792.290161 754.374939 791.580505 756.0625 790.871094 C 757.793213 790.126038 759.522461 789.37738 761.25 788.625 C 762.005737 788.298462 762.761414 787.971924 763.540039 787.635498 C 779.222839 780.548767 793.326721 770.198242 807.5 760.5625 C 810.30304 758.66217 813.106812 756.763 815.910706 754.863892 C 817.72699 753.633423 819.542908 752.402466 821.358459 751.170898 C 827.302551 747.140747 833.26355 743.137329 839.250488 739.171143 C 851.491699 731.050537 862.582947 722.664001 871.503906 710.871094 C 871.99762 710.253662 872.491333 709.636169 873 709 Z" />
    <path id="path6" fill="#05b189" stroke="none" d="M 339 716 C 341.539063 718.109375 341.539063 718.109375 344 721 C 344.431519 721.490479 344.863037 721.980957 345.307617 722.486328 C 346.684845 724.057129 348.032715 725.649231 349.375 727.25 C 349.859039 727.825012 350.343079 728.400024 350.841797 728.992432 C 354.012787 732.776794 357.100952 736.612915 360.105469 740.53125 C 362.652679 743.850525 365.231354 747.144592 367.8125 750.4375 C 368.293335 751.053589 368.774139 751.669678 369.269531 752.304443 C 371.100372 754.640137 372.899353 756.899353 375 759 C 381.477783 758.90863 385.876404 756.072388 391.25 752.6875 C 392.111755 752.157104 392.97348 751.62677 393.861328 751.080322 C 396.58252 749.399841 399.291901 747.701538 402 746 C 403.796783 744.880066 405.593658 743.760254 407.390625 742.640625 C 410.650726 740.600159 413.908447 738.556091 417.15625 736.496094 C 417.804016 736.085449 418.451752 735.674805 419.119141 735.251709 C 421.069397 733.991638 421.069397 733.991638 423.056641 732.367432 C 425.838623 730.409912 427.667938 730.59198 431 731 C 436.078857 733.286316 438.428894 736.963318 441.4375 741.4375 C 442.490845 742.966187 443.54422 744.494812 444.597656 746.023438 C 445.148254 746.830078 445.698853 747.636719 446.266113 748.467773 C 449.270264 752.855103 452.325623 757.206543 455.375 761.5625 C 455.945313 762.382263 456.515656 763.202026 457.103271 764.046631 C 460.243225 768.548889 463.454254 772.959473 466.853271 777.270508 C 468 779 468 779 468.6875 782.1875 C 467.238556 788.11499 461.302612 791.380127 456.5 794.6875 C 451.658936 798.078674 446.911987 801.554016 442.25 805.1875 C 436.002899 810.047302 429.584656 814.610229 423 819 C 421.868958 826.392639 424.608856 830.594177 428.625 836.625 C 429.486786 837.970764 429.486786 837.970764 430.365967 839.34375 C 432.225525 842.241577 434.109772 845.12207 436 848 C 437.980316 851.023682 439.956879 854.0495 441.921387 857.083496 C 443.162598 858.997681 444.415222 860.904602 445.680176 862.803223 C 446.245911 863.672546 446.811646 864.54187 447.394531 865.4375 C 447.898315 866.199341 448.4021 866.961182 448.921143 867.746094 C 450.1828 870.381836 450.305664 872.11084 450 875 C 444.657257 882.264221 435.048889 887.088257 427.589844 891.964844 C 423.440125 894.686035 419.393738 897.527466 415.375 900.4375 C 402.456085 909.714478 402.456085 909.714478 397.8125 910.625 C 391.928162 909.317383 388.121307 902.833862 384.5 898.25 C 383.734314 897.287292 383.734314 897.287292 382.953125 896.305176 C 377.822296 889.82782 372.810944 883.259399 367.8125 876.679688 C 366.875366 875.45282 365.937927 874.226257 365 873 C 363.917175 871.58075 363.917175 871.58075 362.8125 870.132813 C 360.998993 867.800842 360.998993 867.800842 358 866 C 352.100586 866.105652 347.729889 869.231506 342.875 872.25 C 341.580566 873.040588 341.580566 873.040588 340.26001 873.847168 C 329.697784 880.340088 319.315399 887.123047 309 894 C 305.19873 894.393066 301.442627 894.148193 298.382813 891.712891 C 296.935608 889.962402 295.712006 888.170715 294.5 886.25 C 294.03772 885.570435 293.575409 884.890869 293.099121 884.190674 C 292.155518 882.799255 291.223572 881.399902 290.303711 879.992676 C 288.466827 877.185059 286.544006 874.439453 284.625 871.6875 C 283.917297 870.648499 283.209595 869.609497 282.480469 868.539063 C 280.571045 865.772705 278.574036 863.082581 276.550781 860.398438 C 275.953796 859.598328 275.356781 858.798218 274.741699 857.973877 C 273.561035 856.395874 272.369019 854.826294 271.164551 853.266357 C 268.779053 850.060913 267.153015 847.721313 266.316406 843.777344 C 267.984222 837.001282 275.79538 833.072815 281.1875 829.1875 C 287.927856 824.278748 294.539764 819.273926 301 814 C 302.661377 812.660095 304.327942 811.326538 306 810 C 306.721863 809.422485 307.443756 808.844971 308.1875 808.25 C 310 807 310.559845 806.533386 311 806 C 315.354553 800.723083 311.275085 796.788818 307.363281 791.28125 C 306.886841 790.579102 306.41037 789.876892 305.919495 789.153442 C 304.400879 786.92334 302.857697 784.711731 301.3125 782.5 C 300.293182 781.015503 299.275604 779.529846 298.259766 778.042969 C 296.81958 775.935059 295.377441 773.829041 293.920715 771.732544 C 291.639099 768.444153 289.396759 765.132568 287.223389 761.771484 C 286.817322 761.145752 286.411224 760.52002 285.992859 759.875366 C 284.587494 757.220825 284.050354 754.921448 284.277344 751.929688 C 285.907532 747.576599 290.268738 745.437256 294 743 C 296.02182 741.584717 298.042572 740.167969 300.0625 738.75 C 301.757477 737.583069 303.456085 736.42157 305.155273 735.260742 C 307.810822 733.445862 310.461456 731.62384 313.111572 729.801025 C 314.48819 728.855347 315.866272 727.911804 317.24585 726.970459 C 320.21344 724.94165 323.143219 722.893372 326.027344 720.746094 C 326.884583 720.108032 327.741791 719.46991 328.625 718.8125 C 329.339142 718.262085 330.053284 717.71167 330.789063 717.144531 C 333.81604 715.577576 335.63446 715.45929 339 716 Z" />
    <path id="path7" fill="#01a3ea" stroke="none" d="M 605.796875 623.691406 C 614.157959 629.759521 620.111328 638.632751 621.792969 648.925781 C 622.953674 660.555054 620.599792 669.367432 614 679 C 613.401855 679.907471 612.803772 680.815002 612.1875 681.75 C 605.094971 689.045166 596.210327 693.319336 586.048096 693.468262 C 585.248474 693.45813 584.448853 693.447937 583.625 693.4375 C 582.370483 693.426147 582.370483 693.426147 581.090576 693.414551 C 574.727966 693.244873 569.513428 692.351929 564 689 C 563.298767 688.575928 562.597473 688.151794 561.875 687.714844 C 553.691162 682.150452 547.189392 673.729126 545 664 C 544.084229 654.719666 544.333374 646.315552 549 638 C 549.636169 636.832092 549.636169 636.832092 550.285156 635.640625 C 555.535339 626.924377 563.413879 621.253662 573 618 C 584.951904 615.146973 595.347412 617.372131 605.796875 623.691406 Z" />
    <path id="path8" fill="#fdbf13" stroke="none" d="M 628.644531 523.660156 C 636.671875 529.521179 642.391541 537.354797 645 547 C 646.340271 559.316223 643.965942 569.783691 636.8125 579.9375 C 632.924622 584.543823 628.361633 587.348938 623 590 C 622.341309 590.340332 621.682556 590.680603 621.003906 591.03125 C 612.739868 594.74231 602.430359 593.849731 594 591 C 582.170532 586.32666 576.715698 579.468506 571.382813 568.207031 C 567.87915 560.081238 567.831665 551.490967 570.75 543.125 C 572.41571 539.051331 574.30896 535.50647 577 532 C 577.742493 530.98938 578.484985 529.97876 579.25 528.9375 C 591.3396 514.814453 613.677551 514.264343 628.644531 523.660156 Z" />
    <path id="path9" fill="#06ac85" stroke="none" d="M 706.488281 647.503906 C 713.864136 652.648438 720.124146 660.768127 721.789063 669.777344 C 723.027893 682.831116 721.364319 692.695313 713 703 C 705.119507 711.120728 697.688538 715.022156 686.239746 715.241211 C 676.288696 715.283813 669.102356 714.076782 661 708 C 660.174988 707.443115 659.349976 706.88623 658.5 706.3125 C 651.723572 700.044312 646.751221 691.086548 645.617188 681.898438 C 645.249084 671.616821 647.584351 661.839417 654.246094 653.808594 C 669.096313 638.495361 688.398254 636.570374 706.488281 647.503906 Z" />
    <path id="path10" fill="#e32c31" stroke="none" d="M 726 547 C 734.460144 552.261475 740.699097 559.622864 743.527344 569.292969 C 745.266846 579.255554 745.153748 590.070496 740 599 C 733.121643 608.241943 725.539551 615.002441 714 617 C 702.318359 618.042297 692.816162 616.701538 683.1875 609.8125 C 675.069763 602.984863 669.78833 593.343018 668.652344 582.761719 C 668.315308 570.291565 671.608826 561.315369 680 552 C 682.817566 549.552368 685.696472 547.723816 689 546 C 689.747681 545.588806 690.4953 545.177551 691.265625 544.753906 C 702.704224 539.280823 715.21521 540.879333 726 547 Z" />
    <path id="path11" fill="#e9e9e9" stroke="none" d="M 837 649 C 837.659973 649.330017 838.320007 649.659973 839 650 C 840.261658 664.578979 834.410278 678.146851 828.902344 691.308594 C 827.034851 695.800964 825.470398 700.364136 824 705 C 824.659973 705.330017 825.320007 705.659973 826 706 C 824.806946 706.717346 824.806946 706.717346 823.589844 707.449219 C 811.661255 714.725708 800.147522 722.608032 788.60376 730.473389 C 785.404785 732.652283 782.203491 734.827759 779 737 C 778.014465 737.668274 778.014465 737.668274 777.009033 738.350037 C 759.15094 750.433228 741.737549 758.874695 721 765 C 719.810181 765.359619 718.620361 765.719299 717.394531 766.089844 C 704.794189 769.435486 691.219482 769.72876 678.245117 770.338135 C 648.758118 771.762085 625.818115 782.357849 601.6875 798.75 C 600.227173 799.735474 598.766479 800.720337 597.30542 801.70459 C 595.149231 803.15741 592.993408 804.61084 590.839722 806.067383 C 587.032715 808.640564 583.210022 811.183899 579.351563 813.679688 C 565.975708 822.336792 554.357727 831.85144 544 844 C 543.01001 844.98999 543.01001 844.98999 542 846 C 541.670044 845.339966 541.339966 844.679993 541 844 C 542.985107 840.126953 545.544922 836.588135 548 833 C 548.641968 832.053833 549.283936 831.107666 549.945313 830.132813 C 583.817993 782.608032 644.38208 763.235413 698.75 751.375 C 721.721558 746.31543 743.240479 736.92981 764 726 C 764.895874 725.530762 765.791809 725.061584 766.714844 724.578125 C 783.9646 715.506531 800.683289 705.932373 816.3125 694.25 C 817.343933 693.490112 817.343933 693.490112 818.39624 692.714844 C 827.506348 685.713501 833.253601 676.707153 835.046875 665.308594 C 835.295349 663.353333 835.529663 661.396179 835.75 659.4375 C 835.875061 658.428833 836.000061 657.420105 836.128906 656.380859 C 836.431946 653.921814 836.721985 651.461975 837 649 Z" />
</g></svg>